<mxfile host="app.diagrams.net" modified="2024-03-20T07:44:35.303Z" agent="Mozilla/5.0 (Windows NT 10.0; Win64; x64) AppleWebKit/537.36 (KHTML, like Gecko) Chrome/122.0.0.0 Safari/537.36" etag="V3G7fUlHNpI2wWzf3NOh" version="24.0.7" type="device">
  <diagram name="Page-1" id="S2yfWLfZNq1ndK651z8h">
    <mxGraphModel dx="2045" dy="2098" grid="1" gridSize="10" guides="1" tooltips="1" connect="1" arrows="1" fold="1" page="1" pageScale="1" pageWidth="1100" pageHeight="850" math="0" shadow="0">
      <root>
        <mxCell id="0" />
        <mxCell id="1" parent="0" />
        <mxCell id="z9fC9YrkOBcbFStebU5l-1" value="" style="shape=image;verticalLabelPosition=bottom;labelBackgroundColor=default;verticalAlign=top;aspect=fixed;imageAspect=0;image=data:image/png,iVBORw0KGgoAAAANSUhEUgAAAYgAAAEWCAYAAAB8LwAVAAAAOXRFWHRTb2Z0d2FyZQBNYXRwbG90bGliIHZlcnNpb24zLjUuMSwgaHR0cHM6Ly9tYXRwbG90bGliLm9yZy/YYfK9AAAACXBIWXMAAAsTAAALEwEAmpwYAAAeq0lEQVR4nO3de5wcVZ338c+XJBBuCpgRQyYX0KwQBAIOAR9wCfsIBEWDq7IJougCWV3wsq4uoD6AKM962ZUVQSFgDKAEEQUihgUUAYVFMmDkEkRiCE6GSyJBgoBAwm//qNNQ6VTP1AxT03P5vl+vek3XOaeqf13p9K/PqdNVigjMzMzqbdLsAMzMbGBygjAzs0JOEGZmVsgJwszMCjlBmJlZIScIMzMr5ARhA56kcyX9v2bHMVwo811JT0i6vdnxWPM4QdgGJK2Q9LaSbW+UdGzVMUXERyLii+k5p0ta2dt9STpN0guS/pJb/q3voh0S9gcOAlojYlp9paQPSQpJZ9aVz0zl8/spTquYE4QNRz+IiK1yy1frG0ga0YzABoiJwIqIeLqLNn8AjpA0Mld2NPD73jxh6rX482iA8T+INZS+Kf5K0n+k4YYHJR2a6s4A3gqcnb6Fn53Kd5Z0vaQ1ku6XdERuf/MlnSPpp5KekvRrSa9PdZJ0pqRVktZKulvSm3LbfUnSlsA1wA65b/87SHpG0mtyz7OXpNWSRvXgtc6X9G1JiyQ9DRyY9v2jtK8HJX08137ztM0TkpZK+ky+Z5O+Sb+hbv9fyq0fJmmJpD9LulXS7rm6FZI+LekuSU9K+oGk0bn6mWnbtZL+IGmGpPdJuqPuNX1K0lUNXu8Okhamf6dlko5L5ccAFwBvScf3Cw0O2aPA3cAhabvtgP8DLKx7nn3T6/uzpN9Kmp6ru1HSGZJuAZ4BdpJ0cHrfPCnpW5JuUq6XKukfJd2Xjvu1kiY2iM/6QkR48fLSAqwA3pYefwh4ATgOGAF8FHgYUKq/ETg2t+2WQAfwYWAksCfwJ2BKqp8PPA5MS/XfBy5NdYcAdwDbAAJ2AcbmtvtSejwdWFkX8yLgo7n1M4FvNnh9pwHfKyifDzwJ7Ef2xWmLFM8pwKbATsBy4JDU/svAL4HtgPHAPfm4gADeULf/2mvYE1gF7JOO69HpuG+W+ze4Hdgh7f8+4COpblqK86AU5zhgZ2AzYA2wS+45fwO8p8FxuBn4FjAamAqsBv4u9+/+qy7eIx8CfgUcSdYbA/hn4DzgS8D8VDYu/Xu/PcV6UFpvyb1//gjsmt4PLcBa4O/T+ifI3n/HpvYzgWXpvTES+Dxwa7P/zwzlZcj1ICTNS99C7ynZ/oj0DfBeSZdUHd8g9FBEnB8R64ELgbHA9g3aHkY2NPHdiFgXEb8BfgS8L9fmioi4PSLWkSWIqan8BWBrsg87RcR9EfFIyRgvBI6Cl4aGZgMXd9H+iPSNtrbskMqviohbIuJFYDeyD7LTI+L5iFgOnA/Mqu0DOCMi1kREB3BWyVgB5gDnRcSvI2J9RFwIPAfsm2tzVkQ8HBFrgJ/w8nE6BpgXEddHxIsR0RkRv4uI54Af5I7DrsAk4Or6J5c0niwRnhgRf42IJWS9hg/24DUAXAFMl/TqtO1FdfVHAYsiYlGK9XqgnSxh1MyPiHvT++FQ4N6I+HFaP4usp1LzEeDf03tjHfD/ganuRVRnyCUIsm9qM8o0lDQZOBnYLyJ2BT5ZXViD1kv/QSPimfRwqwZtJwL75D98gfcDryvaH9mwwlZp3zcAZwPnAKskzZX0qpIxXgVMkbQj2bfUJyOiq9k3l0XENrnl4VTeUfdadqh7LZ/l5eS4Q137h0rGWtv3v9bte3zaZ03hcUrt/tBgvxcCR0oS8IH0Op8raLcDsCYinqqLf1wPXgMR8SzwU7Jv8q+JiFvqmkwE3lf3Ovcn+5JRkz+GGxzTiAggPyFhIvCN3L7WkPU2exS3lTey+yaDS0TcLGlSvkzZOPc5ZF3YZ4DjIuJ3ZEMn50TEE2nbVf0c7mBXfyngDuCmiDioVzuLOAs4S9JrgcuAzwD101s3uvxwRPxV0mVk31h3puveQ5ch5B53AA9GxOQGbR8h+7C+N61PqKt/hmyYquZ1vPxh10HW+zijFzF2AK8vqoiI2yQ9T3Zu6Mi0FHkY2E7S1rkkMQHo7EU8FwE3AEXnKjqAiyPiuC62zx/zR4DW2kpKdK25+tpx+34v4rReGIo9iCJzgY9FxJuBT5ONvQL8DfA3km6RdJukUj0Pe8ljZGPzNVeTHc8PSBqVlr0l7dLdjlK7fZSdWH4a+CvwYoPnfE0a1si7iGxs/F30PkHk3Q48JenEdEJ6hKQ3Sdo71V8GnCxpW0mtwMfqtl9C9m1+RHpfHZCrOx/4SHq9krSlpHdI2rpEXN8BPizp/0raRNI4STvn6i8i64m9EBG/KtpBGhK7Ffh3SaOVnSA/BvheieevdxNZr+2bBXXfA94p6ZB0HEYrm6bcWtAWst7IbpIOVzY76ng27H2eS3bMdwWQ9GpJ7yvYj/WRIZ8gJG1FNrvih5KWkJ1Iq3VxRwKTyU58zgbOl7RN/0c5aH0DeG+aUXJW+jZ6MNk4/cNkwyRfITuB2p1XkX1wPkE23PE48LX6RqnntwBYnj9/kIY3XgTujIieDPcUSudcDiMb+3+Q7GT7BUAtMX0hxfkgcB0bJ6VPAO8E/kw2zHZlbt/tZL3Xs8le7zKy5FYmrtvJJgGcSXay+iayoZeai4E30f2H/WyycxQPk51LODUiflYmhrp4IiJ+ns6V1Nd1kJ1Y/izZSfAOsl5h4edORPyJ7HzVV8n+/aeQnbN4LtVfQfZ+ulTSWrKJAYf2NGYrrzYbZUhJQ0xXR8Sb0jj2/RExtqDducCvI+K7af3nwEkRsbhfA7Y+IekG4JKIuKAJzz2dbHZUo2/H/RXH5mQzpPaKiAeaGcsrpex3ESuB90fEL5odz3A05HsQEbEWeLDWFU1d+j1S9ZVkvQckjSEbclrehDDtFUpDP3uRzeQZzj4KLB6sySENR20jaTOynoeA25oc1rA15E5SS1pA9qE/RtkPl04l6+J/W9LngVHApcBvgWuBgyUtBdYDn4mIx5sSuPWapAuBw4FP1M3MGVYkrSD7QD28uZG8Im8BLiH77clS4PA0W8qaYEgOMZmZ2Ss35IeYzMysd4bUENOYMWNi0qRJzQ7DzGzQuOOOO/4UES1FdUMqQUyaNIn29vZmh2FmNmhIajgt3ENMZmZWyAnCzMwKOUGYmVkhJwgzMyvkBGFmZoWcIMzMrJAThJmZFXKCMDOzQk4QZmZWyAliCBrbOgFJ3S5jW+vvkmlm9rIhdakNyzza2cHEE6/utt1DXzmsH6Ixs8HKPQgzMyvkBGFmZoWcIMzMrJAThJmZFarsJLWkecBhwKqIeFNB/WfI7hVdi2MXoCUi1qR76z5Fdp/odRHRVlWcZmZWrMoexHxgRqPKiPhaREyNiKnAycBNEbEm1+TAVO/kYGbWBJUliIi4GVjTbcPMbGBBVbGYmVnPNf0chKQtyHoaP8oVB3CdpDskzelm+zmS2iW1r169uspQzcyGlaYnCOCdwC11w0v7R8RewKHA8ZL+ttHGETE3Itoioq2lpfC+22Zm1gsDIUHMom54KSI6099VwBXAtCbEZWY2rDU1QUh6NXAAcFWubEtJW9ceAwcD9zQnQjOz4avKaa4LgOnAGEkrgVOBUQARcW5q9m7guoh4Orfp9sAVkmrxXRIR/11VnGZmVqyyBBERs0u0mU82HTZfthzYo5qozMysrIFwDsLMzAYgJwgzMyvkBGFmZoWcIMzMrJAThJmZFXKCMDOzQk4QZmZWyAnCzMwKOUGYmVkhJwgzMyvkBGFmZoWcIMzMrJAThJmZFXKCMDOzQk4QZmZWyAnCzMwKOUGYmVkhJwgzMyvkBGFmZoUqSxCS5klaJemeBvXTJT0paUlaTsnVzZB0v6Rlkk6qKkYzM2usyh7EfGBGN21+GRFT03I6gKQRwDnAocAUYLakKRXGaWZmBSpLEBFxM7CmF5tOA5ZFxPKIeB64FJjZp8GZmVm3mn0O4i2SfivpGkm7prJxQEeuzcpUVkjSHEntktpXr15dZaxmZsNKMxPEncDEiNgD+CZwZW92EhFzI6ItItpaWlr6Mj4zs2GtaQkiItZGxF/S40XAKEljgE5gfK5payqzvjZiFJK6Xca2Tmh2pGbWBCOb9cSSXgc8FhEhaRpZsnoc+DMwWdKOZIlhFnBks+Ic0ta/wMQTr+622UNfOawfgjGzgaayBCFpATAdGCNpJXAqMAogIs4F3gt8VNI64FlgVkQEsE7SCcC1wAhgXkTcW1WcZmZWrLIEERGzu6k/Gzi7Qd0iYFEVcZmZWTnNnsVkZmYDlBOEmZkVcoIYJMa2Tig140hSs0M1syGiabOYrGce7ewoNeMIPOvIzPqGexBmZlbICcLMzAo5QZiZWSEnCDMzK+QEYWZmhZwgzMyskBOEmZkVcoIwM7NCThBmZlbICcLMzAo5QZiZWSEnCDMzK+QEYWZmhZwgzMyskBOEmZkVcoIwM7NClSUISfMkrZJ0T4P690u6S9Ldkm6VtEeubkUqXyKpvaoYzcyssSp7EPOBGV3UPwgcEBG7AV8E5tbVHxgRUyOiraL4zMysC5XdcjQibpY0qYv6W3OrtwGtVcViZmY9N1DOQRwDXJNbD+A6SXdImtPVhpLmSGqX1L569epKgzQzG04q60GUJelAsgSxf654/4jolPRa4HpJv4uIm4u2j4i5pOGptra2qDxgM7Nhoqk9CEm7AxcAMyPi8Vp5RHSmv6uAK4BpzYnQzGz4alqCkDQB+DHwgYj4fa58S0lb1x4DBwOFM6HMzKw6lQ0xSVoATAfGSFoJnAqMAoiIc4FTgNcA35IEsC7NWNoeuCKVjQQuiYj/ripOMzMrVuUsptnd1B8LHFtQvhzYY+MtzMysPw2UWUxmZjbAOEGYmVkhJwgzMytUKkFI2q3qQMzMbGAp24P4lqTbJf2zpFdXGpGZmQ0IpRJERLwVeD8wHrhD0iWSDqo0MjMza6rS5yAi4gHg88CJwAHAWZJ+J+nvqwrOzMyap+w5iN0lnQncB/wd8M6I2CU9PrPC+MzMrEnK/lDum2TXTPpsRDxbK4yIhyV9vpLIzMysqcomiHcAz0bEegBJmwCjI+KZiLi4sujMzKxpyp6D+BmweW59i1RmZmZDVNkEMToi/lJbSY+3qCYkMzMbCMomiKcl7VVbkfRm4Nku2puZ2SBX9hzEJ4EfSnoYEPA64B+qCsrMzJqvVIKIiMWSdgbemIruj4gXqgvLzMyarSf3g9gbmJS22UsSEXFRJVGZmVnTlUoQki4GXg8sAdan4gCcIMzMhqiyPYg2YEpERJXBmJnZwFF2FtM9ZCemzcxsmCibIMYASyVdK2lhbeluI0nzJK2SdE+Dekk6S9IySXfVTaU9WtIDaTm6ZJxWhRGjkNTtMrZ1QrMjNbM+VHaI6bRe7n8+cDaNz1UcCkxOyz7At4F9JG0HnEo2tBVklxhfGBFP9DIOeyXWv8DEE6/uttlDXzmsH4Ixs/5S9n4QNwErgFHp8WLgzhLb3Qys6aLJTOCiyNwGbCNpLHAIcH1ErElJ4XpgRplYzcysb5S93PdxwOXAealoHHBlHzz/OKAjt74ylTUqL4ptjqR2Se2rV6/ug5DMzAzKn4M4HtgPWAsv3TzotVUF1RMRMTci2iKiraWlpdnhmJkNGWUTxHMR8XxtRdJIsnMDr1Qn2W1Ma1pTWaNyMzPrJ2UTxE2SPgtsnu5F/UPgJ33w/AuBD6bZTPsCT0bEI8C1wMGStpW0LXBwKrNhZGzrBM+eMmuisrOYTgKOAe4G/glYRHaHuS5JWgBMB8ZIWkk2M2kUQEScm/bzdmAZ8Azw4VS3RtIXyU6GA5weEV2d7LYh6NHODs+eMmuishfrexE4Py2lRcTsbuqD7PxGUd08YF5Pns/MzPpO2WsxPUjBOYeI2KnPIzIzswGhJ9diqhkNvA/Yru/DMTOzgaLsD+Uezy2dEfFfwDuqDc3MzJqp7BDTXrnVTch6FD25l4SZmQ0yZT/k/zP3eB3ZZTeO6PNozMxswCg7i+nAqgMxM7OBpewQ06e6qo+Ir/dNOGZmNlD0ZBbT3mS/fAZ4J3A78EAVQZmZWfOVTRCtwF4R8RSApNOAn0bEUVUFZmZmzVX2WkzbA8/n1p9PZWZmNkSV7UFcBNwu6Yq0fjhwYSURmZnZgFB2FtMZkq4B3pqKPhwRv6kuLDMza7ayQ0wAWwBrI+IbwEpJO1YUk5mZDQBlbzl6KnAicHIqGgV8r6qgbGgre58HM2uusucg3g3sCdwJEBEPS9q6sqhsSPN9HswGh7JDTM+nezcEgKQtqwvJzMwGgrIJ4jJJ5wHbSDoO+Bk9vHmQmZkNLt0OMSkbDP4BsDOwFngjcEpEXF9xbGZm1kTdJoiICEmLImI3wEnBzGyYKDvEdKekvXu6c0kzJN0vaZmkkwrqz5S0JC2/l/TnXN36XN3C+m3NzKxaZWcx7QMcJWkF8DQgss7F7o02kDQCOAc4CFgJLJa0MCKW1tpExL/k2n+MbKZUzbMRMbVkfDYQjBjl6almQ0iXCULShIj4I3BIL/Y9DVgWEcvTvi4FZgJLG7SfDZzai+exgWL9C56+ajaEdDfEdCVARDwEfD0iHsov3Ww7DujIra9MZRuRNBHYEbghVzxaUruk2yQd3uhJJM1J7dpXr17dTUhmZlZWdwkiP16wU4VxzAIuj4j1ubKJEdEGHAn8l6TXF20YEXMjoi0i2lpaWioM0cxseOkuQUSDx2V0AuNz662prMgsYMEGTxzRmf4uB25kw/MTZi9L5z7KLGNbJzQ7WrNBo7uT1HtIWkvWk9g8PYaXT1K/qottFwOT00X9OsmSwJH1jSTtDGwL/E+ubFvgmYh4TtIYYD/gqyVfkw03Jc99gM9/mPVElwkiIkb0dscRsU7SCcC1wAhgXkTcK+l0oD0ialNXZwGXpkt51OwCnCfpRbJezpfzs5/MzKx6Zae59kpELAIW1ZWdUrd+WsF2twK7VRmbmZl1rSf3gzAzs2HECcLMzAo5QZiZWSEnCDMzK+QEYWZmhZwgzMyskBOEmZkVcoIwM7NCThBmZlbICcLMzAo5QZiZWSEniCYb2zqh1GWqzcz6W6UX67PuPdrZ4dt0mtmA5B6EmZkVcoIwM7NCThBmZlbICcLMzAo5QZiZWSEnCDMzK1RpgpA0Q9L9kpZJOqmg/kOSVktakpZjc3VHS3ogLUdXGaeZmW2sst9BSBoBnAMcBKwEFktaGBFL65r+ICJOqNt2O+BUoA0I4I607RNVxWtmZhuqsgcxDVgWEcsj4nngUmBmyW0PAa6PiDUpKVwPzKgoTjMzK1BlghgHdOTWV6ayeu+RdJekyyWN7+G2SJojqV1S++rVq/sibjMzo/knqX8CTIqI3cl6CRf2dAcRMTci2iKiraWlpc8DNDMbrqpMEJ3A+Nx6ayp7SUQ8HhHPpdULgDeX3dbMzKpVZYJYDEyWtKOkTYFZwMJ8A0ljc6vvAu5Lj68FDpa0raRtgYNTmZmZ9ZPKZjFFxDpJJ5B9sI8A5kXEvZJOB9ojYiHwcUnvAtYBa4APpW3XSPoiWZIBOD0i1lQVq5mZbazSy31HxCJgUV3ZKbnHJwMnN9h2HjCvyvjMzKyxZp+kNjOzAcoJwoaXEaNK3cFvbOuEZkdq1nS+o5wNL+tf8B38zEpyD8LMzAo5QZiZWSEnCDMzK+QEYWZmhZwgzMyskBOEmZkVcoIwM7NCThBmZlbICcLMzAo5QZiZWSEnCDMzK+QEYWZmhZwgzMyskBOEWT8Y2zqh1GXGR262uS9HbgOGL/dt1g8e7ewofZlxX47cBgr3IMzMrFClCULSDEn3S1om6aSC+k9JWirpLkk/lzQxV7de0pK0LKwyTjMz21hlCULSCOAc4FBgCjBb0pS6Zr8B2iJid+By4Ku5umcjYmpa3lVVnGaFfGtSs0rPQUwDlkXEcgBJlwIzgaW1BhHxi1z724CjKozHrDzfmtSs0iGmcUBHbn1lKmvkGOCa3PpoSe2SbpN0eAXxmb1yJXsaZoPRgJjFJOkooA04IFc8MSI6Je0E3CDp7oj4Q8G2c4A5ABMmuLtv/cw9DRvCquxBdALjc+utqWwDkt4GfA54V0Q8VyuPiM70dzlwI7Bn0ZNExNyIaIuItpaWlr6L3sxsmKsyQSwGJkvaUdKmwCxgg9lIkvYEziNLDqty5dtK2iw9HgPsR+7chZmZVa+yIaaIWCfpBOBaYAQwLyLulXQ60B4RC4GvAVsBP0zjtH9MM5Z2Ac6T9CJZEvtyRDhBmJn1o0rPQUTEImBRXdkpucdva7DdrcBuVcZmZmZd8y+pzcyskBOE2WDkH/JZPxgQ01zNrIc8vdb6gXsQFSl7eWczs4HKPYgeGts6gUc7O7pvCP6GZ2aDmhNED/Xkuv5mZoOZh5jMzKyQE4TZUFZytpNnPFkRDzGZDWUlZzuBh0VtY+5BmJlZIScIMzMr5ASR+HcLZmYb8jmIxNNXzcw25B6EmZkVcoIwM7NCThBmZlbICcLMzAo5QZhZxveYsDqexWRmGd9jwuq4B2FmPeOexrBRaQ9C0gzgG8AI4IKI+HJd/WbARcCbgceBf4iIFanuZOAYYD3w8Yi4tspYzawk9zSGjcp6EJJGAOcAhwJTgNmSptQ1OwZ4IiLeAJwJfCVtOwWYBewKzAC+lfZnZoNFyZ7GyM02b0o793C6V2UPYhqwLCKWA0i6FJgJLM21mQmclh5fDpyt7HoWM4FLI+I54EFJy9L+/qfCeM2sL/Wgp9GUdv/x7tKXzxmx6WjWP//Xbtu9btx4Hln5x1L7HAwUEdXsWHovMCMijk3rHwD2iYgTcm3uSW1WpvU/APuQJY3bIuJ7qfw7wDURcXnB88wB5qTVNwL3V/KCBrYxwJ+aHcQA42OyMR+TjfmYwMSIaCmqGPSzmCJiLjC32XE0k6T2iGhrdhwDiY/JxnxMNuZj0rUqZzF1AuNz662prLCNpJHAq8lOVpfZ1szMKlRlglgMTJa0o6RNyU46L6xrsxA4Oj1+L3BDZGNeC4FZkjaTtCMwGbi9wljNzKxOZUNMEbFO0gnAtWTTXOdFxL2STgfaI2Ih8B3g4nQSeg1ZEiG1u4zshPY64PiIWF9VrEPAsB5ia8DHZGM+JhvzMelCZSepzcxscPMvqc3MrJAThJmZFXKCGGQkrZB0t6QlktpT2XaSrpf0QPq7bbPjrJqkeZJWpd/S1MoKj4MyZ0laJukuSXs1L/LqNDgmp0nqTO+XJZLenqs7OR2T+yUd0pyoqyVpvKRfSFoq6V5Jn0jlw/q9UpYTxOB0YERMzc3fPgn4eURMBn6e1oe6+WSXYclrdBwOJZsJN5nsR5Xf7qcY+9t8Nj4mAGem98vUiFgEw+pyNuuAf42IKcC+wPHptQ/390opThBDw0zgwvT4QuDw5oXSPyLiZrKZb3mNjsNM4KLI3AZsI2lsvwTajxock0ZeupxNRDwI1C5nM6RExCMRcWd6/BRwHzCOYf5eKcsJYvAJ4DpJd6TLjABsHxGPpMePAts3J7Sma3QcxgEduXYrU9lwcUIaLpmXG34cdsdE0iRgT+DX+L1SihPE4LN/ROxF1hU+XtLf5ivTDw2H/dxlH4eXfBt4PTAVeAT4z6ZG0ySStgJ+BHwyItbm6/xeacwJYpCJiM70dxVwBdmwwGO1bnD6u6p5ETZVo+MwbC/dEhGPRcT6iHgROJ+Xh5GGzTGRNIosOXw/In6civ1eKcEJYhCRtKWkrWuPgYOBe9jwkiVHA1c1J8Kma3QcFgIfTDNU9gWezA0vDGl14+fvJnu/wDC5nE26fcB3gPsi4uu5Kr9XSvAvqQcRSTuR9Rogu0zKJRFxhqTXAJcBE4CHgCMiouzJykFJ0gJgOtnlmh8DTgWupOA4pA+Js8lm6zwDfDgi2psQdqUaHJPpZMNLAawA/qn2gSfpc8A/ks30+WREXNPfMVdN0v7AL4G7gRdT8WfJzkMM2/dKWU4QZmZWyENMZmZWyAnCzMwKOUGYmVkhJwgzMyvkBGFmZoWcIMx6IF0Z9JC6sk9KKryom6QbJbUV1ZkNdE4QZj2zgHRr3JxZqdxsSHGCMOuZy4F3SNoUXroA3A7AbEnt6Z4DXyjaUNJfco/fK2l+etwi6UeSFqdlv8pfhVkJThBmPZB+oX472cUSIes9XAZ8Lt2fY3fgAEm792C33yC7Z8PewHuAC/owZLNeG9nsAMwGodow01Xp7zHAEeny6yOBscAU4K6S+3sbMCW7ygMAr5K0VUT8pYttzCrnBGHWc1cBZ6bbUW5BdpOeTwN7R8QTaehodMF2+eva5Os3AfaNiL9WFK9Zr3iIyayH0jf7XwDzyHoTrwKeBp6UtD0vDz/Ve0zSLpI2Ibuyas11wMdqK5KmVhG3WU85QZj1zgJgD2BBRPwW+A3wO+AS4JYG25wEXA3cSnbznpqPA23prm9LgY9UFrVZD/hqrmZmVsg9CDMzK+QEYWZmhZwgzMyskBOEmZkVcoIwM7NCThBmZlbICcLMzAr9Lz6YBCkX6YaeAAAAAElFTkSuQmCC;" vertex="1" parent="1">
          <mxGeometry x="210" y="810" width="392" height="278" as="geometry" />
        </mxCell>
        <mxCell id="z9fC9YrkOBcbFStebU5l-2" value="" style="shape=image;verticalLabelPosition=bottom;labelBackgroundColor=default;verticalAlign=top;aspect=fixed;imageAspect=0;image=data:image/png,iVBORw0KGgoAAAANSUhEUgAAAYgAAAEWCAYAAAB8LwAVAAAAOXRFWHRTb2Z0d2FyZQBNYXRwbG90bGliIHZlcnNpb24zLjUuMSwgaHR0cHM6Ly9tYXRwbG90bGliLm9yZy/YYfK9AAAACXBIWXMAAAsTAAALEwEAmpwYAAAgkElEQVR4nO3de5xdVX338c+XEOWqgBkl5IqWCihXR9BiK1aBoAhaLwXFog+YYsVLbS1gfcSitmr7lIpQATEGVEAE0ZRGIRaFKgUSMHJHY7gkAZpIEBAQSPg+f+w1cBj2JHuS2Tlz+b5fr/3K2Wutvc/vnJnM76y19llbtomIiOhvo24HEBERw1MSRERE1EqCiIiIWkkQERFRKwkiIiJqJUFEREStJIgY9iSdJun/djuOsUKVr0u6X9I13Y4nuicJIp5B0h2S3tCw7U8kHdV2TLaPtv2Z8pz7Slq6rueS9GlJT0j6Xcf2d0MX7ajwGmA/YLLtvfpXSnqvJEs6qV/5IaV89gaKM1qWBBFj0bdtb9GxfbF/A0njuhHYMDENuMP2w2to82vgnZI27ig7Avjlujxh6bXk79Ewkx9IDKh8UvyppH8pww23Szqw1H0O+GPglPIp/JRSvqOkeZJWSrpN0js7zjdb0qmS/lPSQ5KulvSSUidJJ0laLulBSTdIennHcZ+VtDnwA2C7jk//20l6RNILOp5nT0krJI0fxGudLekrkuZKehh4XTn3heVct0v6cEf7Tcsx90u6WdLHO3s25ZP0H/Q7/2c79g+StFDSbyVdKWnXjro7JP2tpOslPSDp25I26ag/pBz7oKRfS5oh6R2Sru33mj4m6fsDvN7tJM0pP6dFkt5fyo8EzgReXd7ffxjgLbsXuAE4oBy3DfBHwJx+z/Oq8vp+K+kXkvbtqPuJpM9J+hnwCPBiSfuX35sHJP27pMvV0UuV9H8k3VLe90skTRsgvhgKtrNle2oD7gDeUB6/F3gCeD8wDvgAcDegUv8T4KiOYzcHlgDvAzYG9gB+A+xc6mcD9wF7lfpvAeeVugOAa4GtAAE7ARM7jvtsebwvsLRfzHOBD3TsnwR8eYDX92ngmzXls4EHgH2oPjhtVuL5FPAc4MXAYuCA0v7zwH8D2wBTgBs74wIM/EG/8/e9hj2A5cDe5X09orzvz+34GVwDbFfOfwtwdKnbq8S5X4lzErAj8FxgJbBTx3P+HHjbAO/DFcC/A5sAuwMrgD/t+Ln/dA2/I+8Ffgq8i6o3BvBXwOnAZ4HZpWxS+Xm/scS6X9nv6fj9uQt4Wfl96AEeBP6s7H+E6vfvqNL+EGBR+d3YGPgkcGW3/8+M5m3U9SAkzSqfQm9s2P6d5RPgTZLOaTu+EehO21+1vRo4C5gIvGiAtgdRDU183fYq2z8HLgTe0dHmItvX2F5FlSB2L+VPAFtS/bGT7Vts39MwxrOAw+GpoaHDgG+sof07yyfavm27Uv592z+z/SSwC9UfshNtP257MfBV4NC+cwCfs73S9hLg5IaxAswETrd9te3Vts8CHgNe1dHmZNt3214J/AdPv09HArNsz7P9pO1ltm+1/Rjw7Y734WXAdODi/k8uaQpVIjzW9u9tL6TqNfzFIF4DwEXAvpKeX449u1/94cBc23NLrPOABVQJo89s2zeV34cDgZtsf7fsn0zVU+lzNPBP5XdjFfCPwO7pRbRn1CUIqk9qM5o0lLQDcDywj+2XAR9tL6wR66n/oLYfKQ+3GKDtNGDvzj++wLuBbevORzWssEU592XAKcCpwHJJZ0h6XsMYvw/sLGl7qk+pD9he09U359veqmO7u5Qv6fdatuv3Wj7B08lxu37t72wYa9+5/6bfuaeUc/apfZ9Ku18PcN6zgHdJEvCe8jofq2m3HbDS9kP94p80iNeA7UeB/6T6JP8C2z/r12Qa8I5+r/M1VB8y+nS+h894T20b6LwgYRrwpY5zraTqbQ4q7mhu47U3GVlsXyFpemeZqnHuU6m6sI8A77d9K9XQyam27y/HLt/A4Y50/ZcCXgJcbnu/dTqZfTJwsqQXAucDHwf6X976rOWHbf9e0vlUn1h3ZM29hzWG0PF4CXC77R0GaHsP1R/rm8r+1H71j1ANU/XZlqf/2C2h6n18bh1iXAK8pK7C9lWSHqeaG3pX2ercDWwjacuOJDEVWLYO8ZwNXAbUzVUsAb5h+/1rOL7zPb8HmNy3UxLd5I76vvftW+sQZ6yD0diDqHMG8CHbrwD+lmrsFeAPgT+U9DNJV0lq1POIp/wv1dh8n4up3s/3SBpftldK2mltJyrt9lY1sfww8HvgyQGe8wVlWKPT2VRj4wez7gmi0zXAQ5KOLRPS4yS9XNIrS/35wPGStpY0GfhQv+MXUn2aH1d+r17bUfdV4OjyeiVpc0lvkrRlg7i+BrxP0uslbSRpkqQdO+rPpuqJPWH7p3UnKENiVwL/JGkTVRPkRwLfbPD8/V1O1Wv7ck3dN4E3SzqgvA+bqLpMeXJNW6h6I7tIeouqq6M+yDN7n6dRvecvA5D0fEnvqDlPDJFRnyAkbUF1dcV3JC2kmkjr6+JuDOxANfF5GPBVSVtt+ChHrC8Bby9XlJxcPo3uTzVOfzfVMMkXqCZQ1+Z5VH8476ca7rgP+Of+jUrP71xgcef8QRneeBK4zvZghntqlTmXg6jG/m+nmmw/E+hLTP9Q4rwduJRnJ6WPAG8Gfks1zPa9jnMvoOq9nkL1ehdRJbcmcV1DdRHASVST1ZdTDb30+Qbwctb+x/4wqjmKu6nmEk6w/aMmMfSLx7b/q8yV9K9bQjWx/AmqSfAlVL3C2r87tn9DNV/1Raqf/85UcxaPlfqLqH6fzpP0INWFAQcONuZoru9qlFGlDDFdbPvlZRz7NtsTa9qdBlxt++tl/7+A42zP36ABx5CQdBlwju0zu/Dc+1JdHTXQp+MNFcemVFdI7Wn7V92MZX2p+l7EUuDdtn/c7XjGolHfg7D9IHB7X1e0dOl3K9Xfo+o9IGkC1ZDT4i6EGeupDP3sSXUlz1j2AWD+SE0OZThqK0nPpep5CLiqy2GNWaNuklrSuVR/9Ceo+uLSCVRd/K9I+iQwHjgP+AVwCbC/pJuB1cDHbd/XlcBjnUk6C3gL8JF+V+aMKZLuoPqD+pbuRrJeXg2cQ/Xdk5uBt5SrpaILRuUQU0RErL9RP8QUERHrZlQNMU2YMMHTp0/vdhgRESPGtdde+xvbPXV1oypBTJ8+nQULFnQ7jIiIEUPSgJeFZ4gpIiJqJUFEREStJIiIiKiVBBEREbWSICIiolYSRERE1EqCiIiIWkkQERFRKwkiIiJqJUG0ZOLkqUha6zZxcv87VUZEDA+jaqmN4eTeZUuYduzFa2135xcO2gDRREQMXnoQERFRKwkiIiJqJUFEREStJIiIiKiVBBEREbWSICIiolYSRERE1EqCiIiIWq0lCElTJP1Y0s2SbpL0kZo2knSypEWSrpe0Z0fdEZJ+VbYj2oozIiLqtflN6lXA39i+TtKWwLWS5tm+uaPNgcAOZdsb+Aqwt6RtgBOAXsDl2Dm2728x3oiI6NBaD8L2PbavK48fAm4BJvVrdghwtitXAVtJmggcAMyzvbIkhXnAjLZijYiIZ9sgcxCSpgN7AFf3q5oELOnYX1rKBiqvO/dMSQskLVixYsWQxRwRMda1niAkbQFcCHzU9oNDfX7bZ9jutd3b09Mz1KePiBizWk0QksZTJYdv2f5uTZNlwJSO/cmlbKDyiIjYQNq8iknA14BbbP/rAM3mAH9RrmZ6FfCA7XuAS4D9JW0taWtg/1IWEREbSJtXMe0DvAe4QdLCUvYJYCqA7dOAucAbgUXAI8D7St1KSZ8B5pfjTrS9ssVYIyKin9YShO2fAlpLGwMfHKBuFjCrhdAiIqKBfJM6IiJqJUFEREStJIiIiKiVBBEREbWSICIiolYSRERE1EqCiIiIWkkQERFRKwkiIiJqJUFEREStJIiIiKiVBNFt48Yjaa3bxMlTux1pRIwxba7mGk2sfoJpx1681mZ3fuGgDRBMRMTT0oOIiIhaSRAREVGrtSEmSbOAg4Dltl9eU/9x4N0dcewE9JSbBd0BPASsBlbZ7m0rzoiIqNdmD2I2MGOgStv/bHt327sDxwOX97tr3OtKfZJDREQXtJYgbF8BNL1N6GHAuW3FEhERg9f1OQhJm1H1NC7sKDZwqaRrJc3sTmQREWPbcLjM9c3Az/oNL73G9jJJLwTmSbq19EiepSSQmQBTp+a7AhERQ6XrPQjgUPoNL9leVv5dDlwE7DXQwbbPsN1ru7enp6fVQCMixpKuJghJzwdeC3y/o2xzSVv2PQb2B27sToQREWNXm5e5ngvsC0yQtBQ4ARgPYPu00uytwKW2H+449EXARZL64jvH9g/bijMiIuq1liBsH9agzWyqy2E7yxYDu7UTVURENDUc5iAiImIYSoKIiIhaSRAREVErCSIiImolQURERK0kiIiIqJUEERERtZIgIiKiVhJERETUSoKIiIhaSRAREVErCSIiImolQURERK0kiIiIqJUEERERtZIgIiKiVmsJQtIsScsl1d4uVNK+kh6QtLBsn+qomyHpNkmLJB3XVowRETGwNnsQs4EZa2nz37Z3L9uJAJLGAacCBwI7A4dJ2rnFOCMiokZrCcL2FcDKdTh0L2CR7cW2HwfOAw4Z0uAiImKtuj0H8WpJv5D0A0kvK2WTgCUdbZaWslqSZkpaIGnBihUr2ow1ImJM6WaCuA6YZns34MvA99blJLbPsN1ru7enp2co44uIGNO6liBsP2j7d+XxXGC8pAnAMmBKR9PJpSwiIjagriUISdtKUnm8V4nlPmA+sIOk7SU9BzgUmNOtOCMixqqN2zqxpHOBfYEJkpYCJwDjAWyfBrwd+ICkVcCjwKG2DaySdAxwCTAOmGX7prbijIiIeq0lCNuHraX+FOCUAermAnPbiCsiIprp9lVMERExTCVBRERErSSIiIiolQQRERG1kiAiIqJWEkRERNRKgoiIiFqNEoSkXdoOJCIihpemPYh/l3SNpL+S9PxWI4qIiGGhUYKw/cfAu6kW0btW0jmS9ms1soiI6KrGcxC2fwV8EjgWeC1wsqRbJf1ZW8FFRET3NJ2D2FXSScAtwJ8Cb7a9U3l8UovxRURElzRdrO/LwJnAJ2w/2ldo+25Jn2wlsoiI6KqmCeJNwKO2VwNI2gjYxPYjtr/RWnQREdE1TecgfgRs2rG/WSmLiIhRqmmC2KTv9qAA5fFmazpA0ixJyyXdOED9uyVdL+kGSVdK2q2j7o5SvlDSgoYxRkTEEGqaIB6WtGffjqRXUN0Fbk1mAzPWUH878FrbuwCfAc7oV/8627vb7m0YY0REDKGmcxAfBb4j6W5AwLbAn6/pANtXSJq+hvorO3avAiY3jCUiIjaARgnC9nxJOwIvLUW32X5iCOM4EvhB51MCl0oycLrt/r2Lp0iaCcwEmDp16hCGFBExtg3mntSvBKaXY/aUhO2z1zcASa+jShCv6Sh+je1lkl4IzJN0q+0r6o4vyeMMgN7eXq9vPBERUWmUICR9A3gJsBBYXYoNrFeCkLQr1fcrDrR9X1+57WXl3+WSLgL2AmoTREREtKNpD6IX2Nn2kH1ClzQV+C7wHtu/7CjfHNjI9kPl8f7AiUP1vBER0UzTBHEj1cT0PU1PLOlcYF9ggqSlwAnAeADbpwGfAl5AtVIswKpyxdKLgItK2cbAObZ/2PR5IyJiaDRNEBOAmyVdAzzWV2j74IEOsH3Ymk5o+yjgqJryxcBuzz4iIiI2pKYJ4tNtBhEREcNP0/tBXA7cAYwvj+cD17UYV/Q3bjySGm0TJ+dy34hYf02vYno/1XcNtqG6mmkScBrw+vZCi2dY/QTTjr24UdM7v3BQy8FExFjQdKmNDwL7AA/CUzcPemFbQUVERPc1TRCP2X68b0fSxlTfg4iIiFGqaYK4XNIngE3Lvai/A/xHe2FFRES3NU0QxwErgBuAvwTmUt2fOiIiRqmmi/U9CXy1bBERMQY0vYrpdmrmHGy/eMgjioiIYWEwazH12QR4B9UlrxERMUo1/aLcfR3bMtv/Bryp3dAiIqKbmg4x7dmxuxFVj2Iw95KIiIgRpukf+f/X8XgV1bIb7xzyaCIiYthoehXT69oOJCIihpemQ0wfW1O97X8dmnAiImK4aPpFuV7gA1SL9E0Cjgb2BLYsWy1JsyQtl3TjAPWSdLKkRZKu75zrkHSEpF+V7YimLygiIoZG0zmIycCeth8CkPRp4D9tH76W42YDpzDwvasPBHYo297AV4C9JW1DdQe6XqrvX1wraY7t+xvGGxER66lpD+JFwOMd+4+XsjWyfQWwcg1NDgHOduUqYCtJE4EDgHm2V5akMA+Y0TDW6JKJk6fmfhURo0jTHsTZwDWSLir7bwHOGoLnnwQs6dhfytPDWHXlzyJpJtW9Kpg6NX94uuneZUsa3bMi96uIGBmaflHuc8D7gPvL9j7b/9hmYE3ZPsN2r+3enp6ebocTETFqNB1iAtgMeND2l4ClkrYfgudfBkzp2J9cygYqj4iIDaRRgpB0AnAscHwpGg98cwiefw7wF+VqplcBD9i+B7gE2F/S1pK2BvYvZRERsYE0nYN4K7AHcB2A7bslDXh5ax9J5wL7AhMkLaW6Mml8OcdpVPeVeCOwCHiEahgL2yslfQaYX051ou01TXZHRMQQa5ogHrdtSQaQtHmTg2wftpZ6U93vuq5uFjCrYXwRETHEms5BnC/pdKrLUN8P/IjcPCgiYlRbaw9CkoBvAzsCDwIvBT5le17LsUVERBetNUGUoaW5tneh+sJaRESMAU2HmK6T9MpWI4mIiGGl6ST13sDhku4AHgZE1bnYta3AIiKiu9aYICRNtX0X1dpIMVKMG081dbRm206awj1L79oAAUXESLS2HsT3qFZxvVPShbbftgFiivW1+omsiRQR621tcxCdH0Nf3GYgERExvKwtQXiAxxERMcqtbYhpN0kPUvUkNi2P4elJ6ue1Gl1ERHTNGhOE7XEbKpCIiBheBrPcd0REjCFJEBERUSsJIiIiaiVBRERErVYThKQZkm6TtEjScTX1J0laWLZfSvptR93qjro5bcYZazZx8lQkrXWLiNGl6VpMgyZpHHAqsB+wFJgvaY7tm/va2P7rjvYforprXZ9Hbe/eVnzR3L3LluSb2RFjUJs9iL2ARbYX234cOA84ZA3tDwPObTGeIZFP0xExVrTWgwAmAUs69pdSrQr7LJKmAdsDl3UUbyJpAbAK+Lzt7w1w7ExgJsDUqVPXP+q1yKfpiBgrhssk9aHABbZXd5RNs90LvAv4N0kvqTvQ9hm2e2339vT0bIhYIyLGhDYTxDJgSsf+5FJW51D6DS/ZXlb+XQz8hGfOT8RQKMuCZ7gsIuq0OcQ0H9hB0vZUieFQqt7AM0jaEdga+J+Osq2BR2w/JmkCsA/wxRZjHZu6tSx47lcRMSK0liBsr5J0DHAJMA6YZfsmSScCC2z3Xbp6KHCe7c7VYncCTpf0JFUv5/OdVz/FCJf7VUSMCG32ILA9F5jbr+xT/fY/XXPclcAubcYWERFrNlwmqSMiYphJgoiIiFpJEBERUSsJIiIiaiVBRERErSSIiIiolQQRERG1kiAiIqJWEkRERNRKgoiIiFpJEBERUSsJIiIiaiVBRERErSSIiIiolQQRERG1Wk0QkmZIuk3SIknH1dS/V9IKSQvLdlRH3RGSflW2I9qMMyIinq21GwZJGgecCuwHLAXmS5pTc2e4b9s+pt+x2wAnAL2AgWvLsfe3FW9ERDxTmz2IvYBFthfbfhw4Dzik4bEHAPNsryxJYR4wo6U4IyKiRpsJYhKwpGN/aSnr722Srpd0gaQpgzwWSTMlLZC0YMWKFUMRd0RE0P1J6v8AptvelaqXcNZgT2D7DNu9tnt7enqGPMCIiLGqzQSxDJjSsT+5lD3F9n22Hyu7ZwKvaHpsRES0q80EMR/YQdL2kp4DHArM6WwgaWLH7sHALeXxJcD+kraWtDWwfymLiIgNpLWrmGyvknQM1R/2ccAs2zdJOhFYYHsO8GFJBwOrgJXAe8uxKyV9hirJAJxoe2VbscYwNW48ktbabNtJU7hn6V0bIKCIsaW1BAFgey4wt1/ZpzoeHw8cP8Cxs4BZbcYXw9zqJ5h27MVrbXbnFw7aAMFEjD3dnqSOiIhhKgkiIiJqJUFEREStJIiIiKiVBBEREbWSICIiolYSRERE1EqCiIiIWkkQERFRKwkiIiJqJUFEREStJIiIiKiVBBEREbWSICLWw8TJU5G01m3i5KndDjVi0Fpd7jtitLt32ZIsSR6jVqs9CEkzJN0maZGk42rqPybpZknXS/ovSdM66lZLWli2Of2PjYiIdrWWICSNA04FDgR2Bg6TtHO/Zj8Hem3vClwAfLGj7lHbu5ft4LbijFGg3HkuQz0RQ6vNIaa9gEW2FwNIOg84BLi5r4HtH3e0vwo4vMV4YrRqeOc5yFBPxGC0OcQ0CVjSsb+0lA3kSOAHHfubSFog6SpJb2khvoiIWINhMUkt6XCgF3htR/E028skvRi4TNINtn9dc+xMYCbA1KkZPoiIGCpt9iCWAVM69ieXsmeQ9Abg74GDbT/WV257Wfl3MfATYI+6J7F9hu1e2709PT1DF32MaU0vX22s4TxJ5khiOGmzBzEf2EHS9lSJ4VDgXZ0NJO0BnA7MsL28o3xr4BHbj0maAOzDMyewI9ZN+UPdxJBevtpwniRzJDGctJYgbK+SdAxwCTAOmGX7JkknAgtszwH+GdgC+E75T3tXuWJpJ+B0SU9S9XI+b/vm2ieKGIz8oY5orNU5CNtzgbn9yj7V8fgNAxx3JbBLm7FFRMSaZamNiIiolQQRERG1kiAiIqJWEkRERNRKgoiIiFpJEBERUSsJIiIiaiVBRAwnWZIjhpFhsVhfRBT5pncMI+lBRERErSSIiJEoQ1GxAWSIKWIkylBUbADpQURERK0kiGLIbxATETHCZYipuHfZknTZIyI6pAcRMZo1nMzOhHbUabUHIWkG8CWqO8qdafvz/eqfC5wNvAK4D/hz23eUuuOBI4HVwIdtX9JmrBGjUsPJbIA7/+WtjYZRt500hXuW3rW+kcUI0FqCkDQOOBXYD1gKzJc0p9+tQ48E7rf9B5IOBb4A/LmknanuYf0yYDvgR5L+0PbqtuKNGPOaXhnVMJGMe84mrH7892ttl4QzfLXZg9gLWGR7MYCk84BDgM4EcQjw6fL4AuAUVb95hwDn2X4MuF3SonK+/2kx3ohoYhCX2HYj4Qx1Oxi7SUy22zmx9HZghu2jyv57gL1tH9PR5sbSZmnZ/zWwN1XSuMr2N0v514Af2L6g5nlmAjPL7kuB29YQ1gTgN+v50rop8XfXSI8fRv5rSPxDb5rtnrqKEX8Vk+0zgDOatJW0wHZvyyG1JvF310iPH0b+a0j8G1abVzEtA6Z07E8uZbVtJG0MPJ9qsrrJsRER0aI2E8R8YAdJ20t6DtWk85x+beYAR5THbwcuczXmNQc4VNJzJW0P7ABc02KsERHRT2tDTLZXSToGuITqMtdZtm+SdCKwwPYc4GvAN8ok9EqqJEJpdz7VhPYq4INDdAVTo6GoYSzxd9dIjx9G/mtI/BtQa5PUERExsuWb1BERUSsJIiIiao2JBCFpE0nXSPqFpJsk/UO3Y1oXksZJ+rmkZmsnDCOS7pB0g6SFkhZ0O57BkrSVpAsk3SrpFkmv7nZMTUl6aXnf+7YHJX2023ENhqS/Lv93b5R0rqRNuh3TYEj6SIn9ppH03o+JOYjy7ezNbf9O0njgp8BHbF/V5dAGRdLHgF7gebZH1LKyku4Aem0Pty8JNSLpLOC/bZ9ZrsrbzPZvuxzWoJUlcJZRfWn1zm7H04SkSVT/Z3e2/Wi5gGWu7dndjawZSS8HzqNaDeJx4IfA0bYXdTWwBsZED8KV35Xd8WUbUZlR0mTgTcCZ3Y5lrJH0fOBPqK66w/bjIzE5FK8Hfj1SkkOHjYFNy/elNgPu7nI8g7ETcLXtR2yvAi4H/qzLMTUyJhIEPDU8sxBYDsyzfXWXQxqsfwP+Dniyy3GsKwOXSrq2LI8ykmwPrAC+Xob4zpS0ebeDWkeHAud2O4jBsL0M+BfgLuAe4AHbl3Y3qkG5EfhjSS+QtBnwRp75ReBha8wkCNurbe9O9a3svUq3b0SQdBCw3Pa13Y5lPbzG9p7AgcAHJf1JtwMahI2BPYGv2N4DeBg4rrshDV4ZGjsY+E63YxkMSVtTLeC5PdXqzptLOry7UTVn+xaqlaovpRpeWkh1G4Nhb8wkiD5laODHwIwuhzIY+wAHl3H884A/lfTN7oY0OOVTILaXAxdRjceOFEuBpR29zguoEsZIcyBwne3/7XYgg/QG4HbbK2w/AXwX+KMuxzQotr9m+xW2/wS4H/hlt2NqYkwkCEk9krYqjzelukfFrV0NahBsH297su3pVEMEl9keMZ+gJG0uacu+x8D+VN3uEcH2vcASSS8tRa/nmcvWjxSHMcKGl4q7gFdJ2qxccPJ64JYuxzQokl5Y/p1KNf9wTncjambEr+ba0ETgrHIFx0bA+bZH3KWiI9iLgIvKmv8bA+fY/mF3Qxq0DwHfKsM0i4H3dTmeQSmJeT/gL7sdy2DZvlrSBcB1VEvv/JwRtmQFcKGkFwBPUC0d9Nsux9PImLjMNSIiBm9MDDFFRMTgJUFEREStJIiIiKiVBBEREbWSICIiolYSRMQgSPqxpAP6lX1U0lcGaP8TSSPmJvURnZIgIgbnXMqtcTuMuPWNIppIgogYnAuAN5UvzCFpOtX6QIdJWrCm+41I+l3H47dLml0e90i6UNL8su3T+quIaCAJImIQbK8ErqFa1wiq3sP5wN/b7gV2BV4raddBnPZLwEm2Xwm8jSzpHsPEWFlqI2Io9Q0zfb/8eyTwzrKM+cZUS7vsDFzf8HxvAHYuS5EAPE/SFh33MInoiiSIiMH7PnCSpD2pbl6zEvhb4JW27y9DR3W3xOxc16azfiPgVbZ/31K8EeskQ0wRg1Q+2f8YmEXVm3ge1T0iHpD0Ip4efurvfyXtJGkj4K0d5ZdSLQYIgKTd24g7YrCSICLWzbnAbsC5tn9BtcLorVTLOP9sgGOOAy4GrqS6M1qfDwO9kq6XdDNwdGtRRwxCVnONiIha6UFEREStJIiIiKiVBBEREbWSICIiolYSRERE1EqCiIiIWkkQERFR6/8DwX6FRE4uIt4AAAAASUVORK5CYII=;" vertex="1" parent="1">
          <mxGeometry x="-160" y="810" width="392" height="278" as="geometry" />
        </mxCell>
        <mxCell id="z9fC9YrkOBcbFStebU5l-3" value="log(Y-base)+Y-detail" style="text;html=1;align=center;verticalAlign=middle;resizable=0;points=[];autosize=1;strokeColor=none;fillColor=none;" vertex="1" parent="1">
          <mxGeometry x="-25" y="1088" width="130" height="30" as="geometry" />
        </mxCell>
        <mxCell id="z9fC9YrkOBcbFStebU5l-4" value="f(log(Y-base)+Y-detail)" style="text;html=1;align=center;verticalAlign=middle;resizable=0;points=[];autosize=1;strokeColor=none;fillColor=none;" vertex="1" parent="1">
          <mxGeometry x="345" y="1088" width="140" height="30" as="geometry" />
        </mxCell>
      </root>
    </mxGraphModel>
  </diagram>
</mxfile>
